<svg width="60" height="44" viewBox="0 0 60 44" fill="none" xmlns="http://www.w3.org/2000/svg">
<mask id="path-1-inside-1_22_703" fill="white">
<path d="M23.5714 0C26.9388 0 28.7755 4.7449 24.7959 6.27551C20.5102 7.95919 16.0714 11.4796 16.0714 15.4592C16.0714 16.8367 16.5306 18.0612 19.2857 18.6735C23.5714 19.5918 28.0102 22.6531 28.0102 30C28.0102 37.3469 22.1939 43.1633 14.0816 43.1633C5.20408 43.1633 0 37.1939 0 26.4796C0 8.7245 15.1531 0 23.5714 0ZM55.5612 0C58.7755 0 60.6122 4.7449 56.6327 6.27551C52.5 7.95919 47.9082 11.4796 47.9082 15.4592C47.9082 16.8367 48.5204 18.0612 51.2755 18.6735C55.4082 19.5918 60 22.6531 60 30C60 37.3469 54.1837 43.1633 45.9184 43.1633C37.1939 43.1633 31.8367 37.1939 31.8367 26.4796C31.8367 8.7245 47.1429 0 55.5612 0Z"/>
</mask>
<path d="M23.5714 0C26.9388 0 28.7755 4.7449 24.7959 6.27551C20.5102 7.95919 16.0714 11.4796 16.0714 15.4592C16.0714 16.8367 16.5306 18.0612 19.2857 18.6735C23.5714 19.5918 28.0102 22.6531 28.0102 30C28.0102 37.3469 22.1939 43.1633 14.0816 43.1633C5.20408 43.1633 0 37.1939 0 26.4796C0 8.7245 15.1531 0 23.5714 0ZM55.5612 0C58.7755 0 60.6122 4.7449 56.6327 6.27551C52.5 7.95919 47.9082 11.4796 47.9082 15.4592C47.9082 16.8367 48.5204 18.0612 51.2755 18.6735C55.4082 19.5918 60 22.6531 60 30C60 37.3469 54.1837 43.1633 45.9184 43.1633C37.1939 43.1633 31.8367 37.1939 31.8367 26.4796C31.8367 8.7245 47.1429 0 55.5612 0Z" fill="url(#paint0_linear_22_703)" fill-opacity="0.35"/>
<path d="M24.7959 6.27551L24.078 4.40882L24.0713 4.41139L24.0646 4.41401L24.7959 6.27551ZM19.2857 18.6735L18.8519 20.6258L18.8592 20.6275L18.8667 20.6291L19.2857 18.6735ZM56.6327 6.27551L55.9147 4.40882L55.8963 4.41589L55.8781 4.42333L56.6327 6.27551ZM51.2755 18.6735L50.8417 20.6258L51.2755 18.6735ZM23.5714 2C24.2685 2 24.8451 2.4991 25.0117 3.09906C25.0863 3.36745 25.0553 3.58285 24.9734 3.74448C24.8978 3.89343 24.6893 4.17369 24.078 4.40882L25.5139 8.1422C26.8923 7.61203 27.9466 6.7252 28.5407 5.55399C29.1283 4.39546 29.1739 3.13765 28.8658 2.02849C28.2672 -0.126653 26.2417 -2 23.5714 -2V2ZM24.0646 4.41401C21.7242 5.33344 19.3058 6.76433 17.4376 8.56729C15.5933 10.3473 14.0714 12.7082 14.0714 15.4592H18.0714C18.0714 14.2306 18.7689 12.8415 20.2154 11.4455C21.6381 10.0724 23.5819 8.90126 25.5272 8.13701L24.0646 4.41401ZM14.0714 15.4592C14.0714 16.3572 14.2184 17.5576 15.1046 18.6285C15.9632 19.6659 17.2596 20.272 18.8519 20.6258L19.7196 16.7211C18.5567 16.4627 18.246 16.1504 18.1862 16.0782C18.154 16.0393 18.0714 15.9387 18.0714 15.4592H14.0714ZM18.8667 20.6291C20.7194 21.0261 22.4857 21.8619 23.7795 23.2761C25.0442 24.6584 26.0102 26.758 26.0102 30H30.0102C30.0102 25.895 28.7568 22.7906 26.7307 20.576C24.7337 18.3932 22.1377 17.2392 19.7048 16.7179L18.8667 20.6291ZM26.0102 30C26.0102 36.1686 21.1646 41.1633 14.0816 41.1633V45.1633C23.2232 45.1633 30.0102 38.5253 30.0102 30H26.0102ZM14.0816 41.1633C10.1185 41.1633 7.19909 39.8503 5.2346 37.5428C3.23056 35.1889 2 31.54 2 26.4796H-2C-2 32.1335 -0.628524 36.8265 2.18887 40.1358C5.04581 43.4916 9.16718 45.1633 14.0816 45.1633V41.1633ZM2 26.4796C2 18.2265 5.50318 12.1261 9.97417 8.06152C14.5107 3.9374 19.9401 2 23.5714 2V-2C18.7844 -2 12.4281 0.424846 7.28348 5.10176C2.07335 9.83824 -2 16.9776 -2 26.4796H2ZM55.5612 2C56.1332 2 56.6949 2.44521 56.8608 3.07408C56.9333 3.34858 56.9009 3.57149 56.8151 3.73936C56.7365 3.89318 56.525 4.17407 55.9147 4.40882L57.3506 8.1422C58.7301 7.61165 59.7813 6.72544 60.3772 5.55912C60.9659 4.40683 61.0195 3.15652 60.7284 2.05347C60.1674 -0.0727555 58.2036 -2 55.5612 -2V2ZM55.8781 4.42333C53.6272 5.34033 51.2199 6.76589 49.3401 8.55929C47.4911 10.3233 45.9082 12.687 45.9082 15.4592H49.9082C49.9082 14.2518 50.6212 12.8655 52.1012 11.4535C53.5505 10.0709 55.5054 8.89437 57.3872 8.1277L55.8781 4.42333ZM45.9082 15.4592C45.9082 16.4575 46.1385 17.6499 47.0695 18.6884C47.9558 19.6769 49.2542 20.2731 50.8417 20.6258L51.7094 16.7211C50.5417 16.4616 50.1565 16.1394 50.0478 16.0182C49.984 15.947 49.9082 15.8384 49.9082 15.4592H45.9082ZM50.8417 20.6258C52.621 21.0213 54.3992 21.8578 55.7197 23.2845C57.0076 24.6761 58 26.7771 58 30H62C62 25.876 60.6965 22.7729 58.6553 20.5675C56.6467 18.3973 54.0626 17.244 51.7094 16.7211L50.8417 20.6258ZM58 30C58 36.1544 53.1692 41.1633 45.9184 41.1633V45.1633C55.1981 45.1633 62 38.5395 62 30H58ZM45.9184 41.1633C42.04 41.1633 39.1131 39.8553 37.1237 37.5369C35.099 35.1774 33.8367 31.5264 33.8367 26.4796H29.8367C29.8367 32.147 31.253 36.8379 34.0881 40.1417C36.9583 43.4865 41.0723 45.1633 45.9184 45.1633V41.1633ZM33.8367 26.4796C33.8367 18.2337 37.3721 12.1342 41.8816 8.06677C46.4573 3.93969 51.9271 2 55.5612 2V-2C50.777 -2 44.3845 0.422557 39.2026 5.0965C33.9545 9.83008 29.8367 16.9704 29.8367 26.4796H33.8367Z" fill="url(#paint1_linear_22_703)" fill-opacity="0.65" mask="url(#path-1-inside-1_22_703)"/>
<defs>
<linearGradient id="paint0_linear_22_703" x1="30" y1="0" x2="30" y2="42.8571" gradientUnits="userSpaceOnUse">
<stop stop-color="#163FA1" stop-opacity="0.5"/>
<stop offset="1" stop-color="#163FA1"/>
</linearGradient>
<linearGradient id="paint1_linear_22_703" x1="30" y1="0" x2="30" y2="42.8571" gradientUnits="userSpaceOnUse">
<stop stop-color="#163FA1" stop-opacity="0.5"/>
<stop offset="1" stop-color="#163FA1"/>
</linearGradient>
</defs>
</svg>
