<svg width="328" height="165" viewBox="0 0 328 165" fill="none" xmlns="http://www.w3.org/2000/svg">
<g clip-path="url(#clip0_75_49)">
<mask id="path-2-inside-1_75_49" fill="white">
<path d="M27 74.625C27 46.6656 49.6656 24 77.625 24H246.375C274.334 24 297 46.6656 297 74.625C297 102.584 274.334 125.25 246.375 125.25H77.625C49.6656 125.25 27 102.584 27 74.625Z"/>
</mask>
<path d="M27 74.625C27 46.6656 49.6656 24 77.625 24H246.375C274.334 24 297 46.6656 297 74.625C297 102.584 274.334 125.25 246.375 125.25H77.625C49.6656 125.25 27 102.584 27 74.625Z" fill="#0F255D"/>
<path d="M25.65 73.95C25.65 45.6178 48.6178 22.65 76.95 22.65H245.025C273.73 22.65 297 45.92 297 74.625C297 47.4112 274.334 25.35 246.375 25.35H77.625C50.4112 25.35 28.35 47.4112 28.35 74.625L25.65 73.95ZM297 125.25H27H297ZM76.95 125.25C48.6178 125.25 25.65 102.282 25.65 73.95C25.65 45.6178 48.6178 22.65 76.95 22.65L77.625 25.35C50.4112 25.35 28.35 47.4112 28.35 74.625C28.35 102.584 50.4112 125.25 77.625 125.25H76.95ZM297 24V125.25V24Z" fill="white" fill-opacity="0.5" style="mix-blend-mode:overlay" mask="url(#path-2-inside-1_75_49)"/>
<g opacity="0.5" filter="url(#filter0_f_75_49)">
<ellipse cx="141.075" cy="211.65" rx="228.825" ry="89.775" fill="#4382FF"/>
</g>
<rect x="1" y="-1" width="268" height="98" rx="49" transform="matrix(1 0 0 -1 27 122.625)" stroke="url(#paint0_linear_75_49)" stroke-width="2"/>
</g>
<g filter="url(#filter1_f_75_49)">
<ellipse cx="249.279" cy="62.5" rx="31.5673" ry="24.5" fill="#0095FF"/>
</g>
<g filter="url(#filter2_f_75_49)">
<ellipse cx="266.147" cy="59.1437" rx="21.2442" ry="15.355" transform="rotate(49.9907 266.147 59.1437)" fill="#0095FF"/>
</g>
<g filter="url(#filter3_di_75_49)">
<rect x="38" y="35" width="248" height="80" rx="40" fill="#061130"/>
</g>
<mask id="mask0_75_49" style="mask-type:alpha" maskUnits="userSpaceOnUse" x="38" y="35" width="248" height="80">
<rect x="39" y="36" width="246" height="78" rx="39" stroke="#38CEE7" stroke-width="2"/>
</mask>
<g mask="url(#mask0_75_49)">
<g filter="url(#filter4_f_75_49)">
<ellipse cx="266" cy="43" rx="75" ry="58" fill="url(#paint1_radial_75_49)"/>
</g>
</g>
<rect opacity="0.7" x="43" y="40" width="238" height="70" rx="35" fill="url(#paint2_radial_75_49)"/>
<rect opacity="0.2" x="1" y="-1" width="268" height="98" rx="49" transform="matrix(1 0 0 -1 27 122)" stroke="url(#paint3_linear_75_49)" stroke-width="2"/>
<defs>
<filter id="filter0_f_75_49" x="-155.25" y="54.375" width="592.65" height="314.55" filterUnits="userSpaceOnUse" color-interpolation-filters="sRGB">
<feFlood flood-opacity="0" result="BackgroundImageFix"/>
<feBlend mode="normal" in="SourceGraphic" in2="BackgroundImageFix" result="shape"/>
<feGaussianBlur stdDeviation="33.75" result="effect1_foregroundBlur_75_49"/>
</filter>
<filter id="filter1_f_75_49" x="180.019" y="0.307693" width="138.519" height="124.385" filterUnits="userSpaceOnUse" color-interpolation-filters="sRGB">
<feFlood flood-opacity="0" result="BackgroundImageFix"/>
<feBlend mode="normal" in="SourceGraphic" in2="BackgroundImageFix" result="shape"/>
<feGaussianBlur stdDeviation="18.8462" result="effect1_foregroundBlur_75_49"/>
</filter>
<filter id="filter2_f_75_49" x="228.892" y="20.8781" width="74.5101" height="76.5314" filterUnits="userSpaceOnUse" color-interpolation-filters="sRGB">
<feFlood flood-opacity="0" result="BackgroundImageFix"/>
<feBlend mode="normal" in="SourceGraphic" in2="BackgroundImageFix" result="shape"/>
<feGaussianBlur stdDeviation="9.61538" result="effect1_foregroundBlur_75_49"/>
</filter>
<filter id="filter3_di_75_49" x="0" y="5" width="328" height="160" filterUnits="userSpaceOnUse" color-interpolation-filters="sRGB">
<feFlood flood-opacity="0" result="BackgroundImageFix"/>
<feColorMatrix in="SourceAlpha" type="matrix" values="0 0 0 0 0 0 0 0 0 0 0 0 0 0 0 0 0 0 127 0" result="hardAlpha"/>
<feOffset dx="2" dy="10"/>
<feGaussianBlur stdDeviation="20"/>
<feComposite in2="hardAlpha" operator="out"/>
<feColorMatrix type="matrix" values="0 0 0 0 0 0 0 0 0 0 0 0 0 0 0 0 0 0 0.25 0"/>
<feBlend mode="overlay" in2="BackgroundImageFix" result="effect1_dropShadow_75_49"/>
<feBlend mode="normal" in="SourceGraphic" in2="effect1_dropShadow_75_49" result="shape"/>
<feColorMatrix in="SourceAlpha" type="matrix" values="0 0 0 0 0 0 0 0 0 0 0 0 0 0 0 0 0 0 127 0" result="hardAlpha"/>
<feOffset/>
<feGaussianBlur stdDeviation="10"/>
<feComposite in2="hardAlpha" operator="arithmetic" k2="-1" k3="1"/>
<feColorMatrix type="matrix" values="0 0 0 0 0 0 0 0 0 0.584314 0 0 0 0 1 0 0 0 0.5 0"/>
<feBlend mode="normal" in2="shape" result="effect2_innerShadow_75_49"/>
</filter>
<filter id="filter4_f_75_49" x="141" y="-65" width="250" height="216" filterUnits="userSpaceOnUse" color-interpolation-filters="sRGB">
<feFlood flood-opacity="0" result="BackgroundImageFix"/>
<feBlend mode="normal" in="SourceGraphic" in2="BackgroundImageFix" result="shape"/>
<feGaussianBlur stdDeviation="25" result="effect1_foregroundBlur_75_49"/>
</filter>
<linearGradient id="paint0_linear_75_49" x1="135" y1="0" x2="135" y2="100" gradientUnits="userSpaceOnUse">
<stop stop-color="#15DCFF"/>
<stop offset="1" stop-color="#15DCFF" stop-opacity="0"/>
</linearGradient>
<radialGradient id="paint1_radial_75_49" cx="0" cy="0" r="1" gradientUnits="userSpaceOnUse" gradientTransform="translate(266 43) rotate(90) scale(58 75)">
<stop stop-color="#0095FF"/>
<stop offset="1" stop-color="#0095FF" stop-opacity="0.25"/>
</radialGradient>
<radialGradient id="paint2_radial_75_49" cx="0" cy="0" r="1" gradientUnits="userSpaceOnUse" gradientTransform="translate(3.89279 125.43) rotate(-18.2307) scale(318.789 281.894)">
<stop stop-color="#1A53FF" stop-opacity="0.5"/>
<stop offset="1" stop-color="#02C0FF"/>
</radialGradient>
<linearGradient id="paint3_linear_75_49" x1="135" y1="0" x2="135" y2="100" gradientUnits="userSpaceOnUse">
<stop stop-color="#15DCFF"/>
<stop offset="1" stop-color="#15DCFF" stop-opacity="0"/>
</linearGradient>
<clipPath id="clip0_75_49">
<rect x="27" y="24" width="270" height="102" rx="51" fill="white"/>
</clipPath>
</defs>
</svg>
