<svg width="1440" height="478" viewBox="0 0 1440 478" fill="none" xmlns="http://www.w3.org/2000/svg">
<rect width="1440" height="478" fill="#1E1E1E"/>
<g id="Design-5" clip-path="url(#clip0_0_1)">
<rect width="1920" height="13179" transform="translate(-255 -1210)" fill="#071331"/>
<g id="Group 934">
<g id="Group 933">
<g id="bg">
<mask id="path-1-inside-1_0_1" fill="white">
<path fill-rule="evenodd" clip-rule="evenodd" d="M30 0C13.4315 0 0 13.4314 0 30V118C0 134.569 13.4315 148 30 148H150.033L150.032 148.01C150.033 148.004 150.037 148 150.042 148H150.033C151.088 115.789 177.532 90 210 90C242.468 90 268.912 115.789 269.967 148H269.958C269.961 148 269.963 148.001 269.965 148.003C269.967 148.005 269.968 148.007 269.968 148.01L269.967 148H490.033L490.032 148.01C490.033 148.004 490.037 148 490.042 148H490.033C491.088 115.789 517.532 90 550 90C582.468 90 608.912 115.789 609.967 148H609.958C609.96 148 609.963 148.001 609.965 148.003C609.966 148.005 609.968 148.007 609.968 148.01L609.967 148H830.033L830.032 148.01C830.032 148.007 830.033 148.005 830.034 148.004C830.036 148.002 830.039 148 830.042 148H830.033C831.088 115.789 857.532 90 890 90C922.468 90 948.912 115.789 949.967 148H949.958C949.963 148 949.967 148.004 949.968 148.01L949.967 148H1170.03L1170.03 148.01C1170.03 148.004 1170.04 148 1170.04 148H1170.03C1171.09 115.789 1197.53 90 1230 90C1262.47 90 1288.91 115.789 1289.97 148H1289.96C1289.96 148 1289.97 148.004 1289.97 148.01L1289.97 148H1410C1426.57 148 1440 134.569 1440 118V30C1440 13.4315 1426.57 0 1410 0H30ZM1440 182C1440 165.431 1426.57 152 1410 152H1289.97L1289.97 151.99C1289.97 151.993 1289.97 151.996 1289.96 151.998C1289.96 151.999 1289.96 152 1289.96 152H1289.97C1288.91 184.211 1262.47 210 1230 210C1197.53 210 1171.09 184.211 1170.03 152H1170.04C1170.04 152 1170.04 151.998 1170.03 151.996C1170.03 151.994 1170.03 151.992 1170.03 151.99L1170.03 152H949.967L949.968 151.99C949.967 151.996 949.963 152 949.958 152H949.967C948.912 184.211 922.468 210 890 210C857.532 210 831.088 184.211 830.033 152H830.042C830.037 152 830.033 151.996 830.032 151.99L830.033 152H609.967L609.968 151.99C609.967 151.996 609.963 152 609.958 152H609.967C608.912 184.211 582.468 210 550 210C517.532 210 491.088 184.211 490.033 152H490.042C490.039 152 490.036 151.998 490.034 151.995C490.033 151.994 490.032 151.992 490.032 151.99L490.033 152H269.967L269.968 151.99C269.967 151.996 269.963 152 269.958 152H269.967C268.912 184.211 242.468 210 210 210C177.532 210 151.088 184.211 150.033 152H150.042C150.04 152 150.038 151.999 150.036 151.998C150.034 151.996 150.032 151.993 150.032 151.99L150.033 152H30C13.4315 152 0 165.431 0 182V448C0 464.569 13.4314 478 30 478H1410C1426.57 478 1440 464.569 1440 448V182Z"/>
</mask>
<g filter="url(#filter0_i_0_1)">
<path fill-rule="evenodd" clip-rule="evenodd" d="M30 0C13.4315 0 0 13.4314 0 30V118C0 134.569 13.4315 148 30 148H150.033L150.032 148.01C150.033 148.004 150.037 148 150.042 148H150.033C151.088 115.789 177.532 90 210 90C242.468 90 268.912 115.789 269.967 148H269.958C269.961 148 269.963 148.001 269.965 148.003C269.967 148.005 269.968 148.007 269.968 148.01L269.967 148H490.033L490.032 148.01C490.033 148.004 490.037 148 490.042 148H490.033C491.088 115.789 517.532 90 550 90C582.468 90 608.912 115.789 609.967 148H609.958C609.96 148 609.963 148.001 609.965 148.003C609.966 148.005 609.968 148.007 609.968 148.01L609.967 148H830.033L830.032 148.01C830.032 148.007 830.033 148.005 830.034 148.004C830.036 148.002 830.039 148 830.042 148H830.033C831.088 115.789 857.532 90 890 90C922.468 90 948.912 115.789 949.967 148H949.958C949.963 148 949.967 148.004 949.968 148.01L949.967 148H1170.03L1170.03 148.01C1170.03 148.004 1170.04 148 1170.04 148H1170.03C1171.09 115.789 1197.53 90 1230 90C1262.47 90 1288.91 115.789 1289.97 148H1289.96C1289.96 148 1289.97 148.004 1289.97 148.01L1289.97 148H1410C1426.57 148 1440 134.569 1440 118V30C1440 13.4315 1426.57 0 1410 0H30ZM1440 182C1440 165.431 1426.57 152 1410 152H1289.97L1289.97 151.99C1289.97 151.993 1289.97 151.996 1289.96 151.998C1289.96 151.999 1289.96 152 1289.96 152H1289.97C1288.91 184.211 1262.47 210 1230 210C1197.53 210 1171.09 184.211 1170.03 152H1170.04C1170.04 152 1170.04 151.998 1170.03 151.996C1170.03 151.994 1170.03 151.992 1170.03 151.99L1170.03 152H949.967L949.968 151.99C949.967 151.996 949.963 152 949.958 152H949.967C948.912 184.211 922.468 210 890 210C857.532 210 831.088 184.211 830.033 152H830.042C830.037 152 830.033 151.996 830.032 151.99L830.033 152H609.967L609.968 151.99C609.967 151.996 609.963 152 609.958 152H609.967C608.912 184.211 582.468 210 550 210C517.532 210 491.088 184.211 490.033 152H490.042C490.039 152 490.036 151.998 490.034 151.995C490.033 151.994 490.032 151.992 490.032 151.99L490.033 152H269.967L269.968 151.99C269.967 151.996 269.963 152 269.958 152H269.967C268.912 184.211 242.468 210 210 210C177.532 210 151.088 184.211 150.033 152H150.042C150.04 152 150.038 151.999 150.036 151.998C150.034 151.996 150.032 151.993 150.032 151.99L150.033 152H30C13.4315 152 0 165.431 0 182V448C0 464.569 13.4314 478 30 478H1410C1426.57 478 1440 464.569 1440 448V182Z" fill="url(#paint0_linear_0_1)" style="mix-blend-mode:overlay"/>
</g>
<path d="M150.032 148.01L148.033 147.948L152.031 148.073L150.032 148.01ZM269.965 148.003L271.486 146.704L271.479 146.696L269.965 148.003ZM269.968 148.01L267.969 148.087L271.966 147.94L269.968 148.01ZM490.032 148.01L488.033 147.953L492.031 148.073L490.032 148.01ZM609.965 148.003L611.411 146.621L611.404 146.614L611.396 146.606L609.965 148.003ZM609.968 148.01L607.969 148.073L611.967 147.963L609.968 148.01ZM830.032 148.01L828.033 147.954L832.031 148.073L830.032 148.01ZM830.034 148.004L828.453 146.78L828.446 146.789L828.438 146.799L830.034 148.004ZM949.968 148.01L947.969 148.077L951.967 147.947L949.968 148.01ZM1170.03 148.01L1168.03 147.934L1172.03 148.1L1170.03 148.01ZM1289.97 148.01L1287.97 148.1L1291.97 147.934L1289.97 148.01ZM1289.97 151.99L1291.97 152.066L1287.97 151.913L1289.97 151.99ZM1289.96 151.998L1291.15 153.612L1291.16 153.602L1291.17 153.593L1289.96 151.998ZM1170.03 151.996L1168.36 153.089L1168.37 153.106L1168.38 153.122L1170.03 151.996ZM1170.03 151.99L1172.03 151.865L1168.03 152.066L1170.03 151.99ZM949.968 151.99L951.967 152.053L947.969 151.923L949.968 151.99ZM830.032 151.99L832.031 151.923L828.033 152.053L830.032 151.99ZM609.968 151.99L611.967 152.053L607.969 151.923L609.968 151.99ZM490.034 151.995L488.309 153.008L488.314 153.016L490.034 151.995ZM490.032 151.99L492.031 151.921L488.033 152.053L490.032 151.99ZM269.968 151.99L271.966 152.058L267.969 151.921L269.968 151.99ZM150.036 151.998L148.781 153.555L148.79 153.562L150.036 151.998ZM150.032 151.99L152.031 151.927L148.033 152.051L150.032 151.99ZM2 30C2 14.536 14.536 2 30 2V-2C12.3269 -2 -2 12.3269 -2 30H2ZM2 118V30H-2V118H2ZM30 150H150.033V146H30V150ZM148.034 147.937L148.033 147.947L152.031 148.073L152.032 148.063L148.034 147.937ZM152.031 148.072C151.998 149.15 151.113 150 150.042 150V146C148.961 146 148.067 146.858 148.033 147.948L152.031 148.072ZM150.042 146H150.033V150H150.042V146ZM152.032 148.065C153.051 116.929 178.615 92 210 92V88C176.45 88 149.124 114.648 148.034 147.935L152.032 148.065ZM210 92C241.385 92 266.949 116.929 267.968 148.065L271.966 147.935C270.876 114.648 243.55 88 210 88V92ZM269.967 146H269.958V150H269.967V146ZM269.958 150C269.363 150 268.819 149.736 268.451 149.31L271.479 146.696C271.108 146.266 270.558 146 269.958 146V150ZM268.445 149.303C268.168 148.979 267.987 148.555 267.969 148.087L271.966 147.933C271.948 147.459 271.765 147.031 271.486 146.704L268.445 149.303ZM271.966 147.94L271.966 147.931L267.968 148.069L267.969 148.079L271.966 147.94ZM269.967 150H490.033V146H269.967V150ZM488.034 147.937L488.033 147.947L492.031 148.073L492.032 148.063L488.034 147.937ZM492.032 148.066C492.001 149.15 491.112 150 490.042 150V146C488.962 146 488.064 146.858 488.033 147.953L492.032 148.066ZM490.042 146H490.033V150H490.042V146ZM492.032 148.065C493.051 116.929 518.615 92 550 92V88C516.45 88 489.124 114.648 488.034 147.935L492.032 148.065ZM550 92C581.385 92 606.949 116.929 607.968 148.065L611.966 147.935C610.876 114.648 583.55 88 550 88V92ZM609.967 146H609.958V150H609.967V146ZM609.958 150C609.389 150 608.884 149.759 608.533 149.4L611.396 146.606C611.042 146.243 610.532 146 609.958 146V150ZM608.519 149.385C608.213 149.065 607.981 148.603 607.968 148.057L611.967 147.963C611.954 147.411 611.72 146.945 611.411 146.621L608.519 149.385ZM611.967 147.947L611.966 147.937L607.968 148.063L607.969 148.073L611.967 147.947ZM609.967 150H830.033V146H609.967V150ZM828.034 147.937L828.033 147.947L832.031 148.073L832.032 148.063L828.034 147.937ZM832.032 148.066C832.019 148.521 831.854 148.914 831.631 149.209L828.438 146.799C828.213 147.097 828.046 147.494 828.033 147.954L832.032 148.066ZM831.616 149.228C831.251 149.7 830.677 150 830.042 150V146C829.401 146 828.822 146.303 828.453 146.78L831.616 149.228ZM830.042 146H830.033V150H830.042V146ZM832.032 148.065C833.051 116.929 858.615 92 890 92V88C856.45 88 829.124 114.648 828.034 147.935L832.032 148.065ZM890 92C921.385 92 946.949 116.929 947.968 148.065L951.966 147.935C950.876 114.648 923.55 88 890 88V92ZM949.967 146H949.958V150H949.967V146ZM949.958 150C948.882 150 948.005 149.147 947.969 148.077L951.966 147.942C951.93 146.862 951.044 146 949.958 146V150ZM951.967 147.947L951.966 147.937L947.968 148.063L947.969 148.073L951.967 147.947ZM949.967 150H1170.03V146H949.967V150ZM1168.03 147.924L1168.03 147.934L1172.03 148.085L1172.03 148.076L1168.03 147.924ZM1172.03 148.1C1171.98 149.139 1171.13 150 1170.04 150V146C1168.94 146 1168.08 146.869 1168.03 147.919L1172.03 148.1ZM1170.04 146H1170.03V150H1170.04V146ZM1172.03 148.065C1173.05 116.929 1198.61 92 1230 92V88C1196.45 88 1169.12 114.648 1168.03 147.935L1172.03 148.065ZM1230 92C1261.39 92 1286.95 116.929 1287.97 148.065L1291.97 147.935C1290.88 114.648 1263.55 88 1230 88V92ZM1289.97 146H1289.96V150H1289.97V146ZM1289.96 150C1288.87 150 1288.02 149.139 1287.97 148.1L1291.97 147.919C1291.92 146.869 1291.06 146 1289.96 146V150ZM1291.97 147.934L1291.97 147.924L1287.97 148.076L1287.97 148.085L1291.97 147.934ZM1289.97 150H1410V146H1289.97V150ZM1438 30V118H1442V30H1438ZM1410 2C1425.46 2 1438 14.536 1438 30H1442C1442 12.3269 1427.67 -2 1410 -2V2ZM30 2H1410V-2H30V2ZM1410 150H1289.97V154H1410V150ZM1291.97 152.076L1291.97 152.066L1287.97 151.915L1287.97 151.924L1291.97 152.076ZM1287.97 151.913C1287.99 151.284 1288.31 150.742 1288.76 150.403L1291.17 153.593C1291.62 153.25 1291.94 152.703 1291.97 152.068L1287.97 151.913ZM1288.78 150.384C1289.1 150.15 1289.51 150 1289.96 150V154C1290.41 154 1290.82 153.849 1291.15 153.612L1288.78 150.384ZM1289.96 154H1289.97V150H1289.96V154ZM1287.97 151.935C1286.95 183.071 1261.39 208 1230 208V212C1263.55 212 1290.88 185.352 1291.97 152.065L1287.97 151.935ZM1230 208C1198.61 208 1173.05 183.071 1172.03 151.935L1168.03 152.065C1169.12 185.352 1196.45 212 1230 212V208ZM1170.03 154H1170.04V150H1170.03V154ZM1170.04 150C1170.74 150 1171.34 150.359 1171.69 150.869L1168.38 153.122C1168.73 153.638 1169.34 154 1170.04 154V150ZM1171.71 150.902C1171.9 151.195 1172.01 151.528 1172.03 151.865L1168.04 152.116C1168.06 152.457 1168.17 152.793 1168.36 153.089L1171.71 150.902ZM1168.03 152.066L1168.03 152.076L1172.03 151.924L1172.03 151.915L1168.03 152.066ZM1170.03 150H949.967V154H1170.03V150ZM951.966 152.063L951.967 152.053L947.969 151.927L947.968 151.937L951.966 152.063ZM947.969 151.923C948.005 150.853 948.882 150 949.958 150V154C951.044 154 951.93 153.138 951.966 152.058L947.969 151.923ZM949.958 154H949.967V150H949.958V154ZM947.968 151.935C946.949 183.071 921.385 208 890 208V212C923.55 212 950.876 185.352 951.966 152.065L947.968 151.935ZM890 208C858.615 208 833.051 183.071 832.032 151.935L828.034 152.065C829.124 185.352 856.45 212 890 212V208ZM830.033 154H830.042V150H830.033V154ZM830.042 150C831.118 150 831.995 150.853 832.031 151.923L828.034 152.058C828.07 153.138 828.956 154 830.042 154V150ZM828.033 152.053L828.034 152.063L832.032 151.937L832.031 151.927L828.033 152.053ZM830.033 150H609.967V154H830.033V150ZM611.966 152.063L611.967 152.053L607.969 151.927L607.968 151.937L611.966 152.063ZM607.969 151.923C608.005 150.853 608.882 150 609.958 150V154C611.044 154 611.93 153.138 611.966 152.058L607.969 151.923ZM609.958 154H609.967V150H609.958V154ZM607.968 151.935C606.949 183.071 581.385 208 550 208V212C583.55 212 610.876 185.352 611.966 152.065L607.968 151.935ZM550 208C518.615 208 493.051 183.071 492.032 151.935L488.034 152.065C489.124 185.352 516.45 212 550 212V208ZM490.033 154H490.042V150H490.033V154ZM490.042 150C490.766 150 491.406 150.389 491.753 150.974L488.314 153.016C488.665 153.607 489.311 154 490.042 154V150ZM491.759 150.983C491.927 151.27 492.02 151.592 492.031 151.921L488.034 152.06C488.045 152.392 488.139 152.718 488.309 153.008L491.759 150.983ZM488.033 152.053L488.034 152.063L492.032 151.937L492.031 151.927L488.033 152.053ZM490.033 150H269.967V154H490.033V150ZM271.966 152.069L271.966 152.06L267.969 151.921L267.968 151.931L271.966 152.069ZM267.969 151.923C268.005 150.849 268.886 150 269.958 150V154C271.04 154 271.93 153.142 271.966 152.058L267.969 151.923ZM269.958 154H269.967V150H269.958V154ZM267.968 151.935C266.949 183.071 241.385 208 210 208V212C243.55 212 270.876 185.352 271.966 152.065L267.968 151.935ZM210 208C178.615 208 153.051 183.071 152.032 151.935L148.034 152.065C149.124 185.352 176.45 212 210 212V208ZM150.033 154H150.042V150H150.033V154ZM150.042 150C150.515 150 150.948 150.167 151.282 150.433L148.79 153.562C149.128 153.831 149.565 154 150.042 154V150ZM151.291 150.44C151.723 150.789 152.013 151.324 152.031 151.93L148.033 152.051C148.052 152.663 148.345 153.204 148.781 153.555L151.291 150.44ZM148.033 152.053L148.034 152.063L152.032 151.937L152.031 151.927L148.033 152.053ZM150.033 150H30V154H150.033V150ZM2 448V182H-2V448H2ZM30 476C14.536 476 2 463.464 2 448H-2C-2 465.673 12.3269 480 30 480V476ZM1410 476H30V480H1410V476ZM1438 448C1438 463.464 1425.46 476 1410 476V480C1427.67 480 1442 465.673 1442 448H1438ZM1438 182V448H1442V182H1438ZM30 150C12.3269 150 -2 164.327 -2 182H2C2 166.536 14.536 154 30 154V150ZM1410 150C1427.67 150 1442 135.673 1442 118H1438C1438 133.464 1425.46 146 1410 146V150ZM1410 154C1425.46 154 1438 166.536 1438 182H1442C1442 164.327 1427.67 150 1410 150V154ZM-2 118C-2 135.673 12.3269 150 30 150V146C14.536 146 2 133.464 2 118H-2Z" fill="url(#paint1_linear_0_1)" fill-opacity="0.5" style="mix-blend-mode:soft-light" mask="url(#path-1-inside-1_0_1)"/>
</g>
</g>
<g id="card-4">
<g id="Vector 3 (Stroke)">
<path fill-rule="evenodd" clip-rule="evenodd" d="M1260 477H1200V474H1260V477Z" fill="white" style="mix-blend-mode:overlay"/>
</g>
<g id="Frame 961">
<circle id="Ellipse 2" cx="1230" cy="150" r="50" fill="url(#paint2_radial_0_1)"/>
<g id="Frame 957">
<g id="Group 888">
<path id="Vector 128" d="M1217.27 153.47L1226.7 144.042" stroke="white" stroke-width="6" stroke-linecap="round"/>
<path id="Vector 128_2" d="M1217.62 167.969L1234.12 151.47" stroke="white" stroke-width="6" stroke-linecap="round"/>
<path id="Vector 129" d="M1222.52 132.079H1246.09V155.649" stroke="white" stroke-width="6" stroke-linecap="round" stroke-linejoin="round"/>
</g>
</g>
</g>
</g>
<g id="card-3">
<g id="Vector 3 (Stroke)_2">
<path fill-rule="evenodd" clip-rule="evenodd" d="M920 477H860V474H920V477Z" fill="white" style="mix-blend-mode:overlay"/>
</g>
<g id="Frame 960">
<circle id="Ellipse 2_2" cx="890" cy="150" r="50" fill="url(#paint3_radial_0_1)"/>
<g id="bubble">
<g id="bubble_2">
<path id="Vector" d="M895.576 148.74C902.187 148.74 907.546 143.381 907.546 136.77C907.546 130.159 902.187 124.8 895.576 124.8C888.965 124.8 883.606 130.159 883.606 136.77C883.606 143.381 888.965 148.74 895.576 148.74Z" stroke="white" stroke-width="5" stroke-miterlimit="10"/>
<path id="Vector_2" d="M874.042 165.493C878.011 165.493 881.229 162.275 881.229 158.306C881.229 154.337 878.011 151.12 874.042 151.12C870.073 151.12 866.855 154.337 866.855 158.306C866.855 162.275 870.073 165.493 874.042 165.493Z" stroke="white" stroke-width="5" stroke-miterlimit="10"/>
<path id="Vector_3" d="M897.979 171.467C901.278 171.467 903.952 168.792 903.952 165.493C903.952 162.194 901.278 159.52 897.979 159.52C894.68 159.52 892.006 162.194 892.006 165.493C892.006 168.792 894.68 171.467 897.979 171.467Z" stroke="white" stroke-width="5" stroke-miterlimit="10"/>
</g>
</g>
</g>
</g>
<g id="card-2">
<g id="Vector 3 (Stroke)_3">
<path fill-rule="evenodd" clip-rule="evenodd" d="M580 477H520V474H580V477Z" fill="white" style="mix-blend-mode:overlay"/>
</g>
<g id="Frame 959">
<circle id="Ellipse 2_3" cx="550" cy="150" r="50" fill="url(#paint4_radial_0_1)"/>
<g id="Group 886">
<g id="Group 887">
<path id="Vector 127" d="M536 143L550 129L564 143" stroke="white" stroke-width="7" stroke-linecap="round" stroke-linejoin="round"/>
<path id="Vector 127_2" d="M536 164L550 150L564 164" stroke="white" stroke-width="7" stroke-linecap="round" stroke-linejoin="round"/>
</g>
</g>
</g>
</g>
<g id="Frame">
<g id="Vector 3 (Stroke)_4">
<path fill-rule="evenodd" clip-rule="evenodd" d="M240 477H180V474H240V477Z" fill="white" style="mix-blend-mode:overlay"/>
</g>
<g id="Frame 958">
<circle id="Ellipse 2_4" cx="210" cy="150" r="50" fill="url(#paint5_radial_0_1)"/>
<g id="Vector_4">
<path d="M197.677 167H190.099C188.507 167 187.72 167 187.241 166.693C186.723 166.357 186.406 165.801 186.368 165.187C186.339 164.621 186.732 163.93 187.519 162.549L206.23 129.568C207.026 128.168 207.429 127.468 207.937 127.209C208.484 126.93 209.136 126.93 209.683 127.209C210.191 127.468 210.594 128.168 211.39 129.568L215.237 136.283L215.257 136.317C216.117 137.82 216.553 138.582 216.743 139.381C216.954 140.254 216.954 141.175 216.743 142.048C216.551 142.854 216.12 143.621 215.247 145.146L205.418 162.52L205.393 162.565L205.392 162.566C204.527 164.08 204.088 164.848 203.481 165.427C202.819 166.06 202.022 166.52 201.15 166.78C200.353 167 199.461 167 197.677 167Z" fill="white"/>
<path d="M216.814 167H227.672C229.274 167 230.08 167 230.56 166.684C231.078 166.348 231.404 165.782 231.433 165.168C231.461 164.621 231.076 163.957 230.322 162.656L230.322 162.656C230.3 162.617 230.277 162.578 230.254 162.539L230.244 162.521L224.804 153.216L224.743 153.111L224.741 153.109C223.978 151.818 223.592 151.166 223.097 150.914C222.551 150.636 221.907 150.636 221.361 150.914C220.862 151.173 220.459 151.854 219.663 153.225L214.243 162.53L214.225 162.562L214.225 162.563C213.431 163.932 213.035 164.616 213.063 165.178C213.102 165.792 213.418 166.357 213.936 166.693C214.406 167 215.212 167 216.814 167Z" fill="white"/>
</g>
</g>
</g>
<path id="Vector 3 (Stroke)_5" fill-rule="evenodd" clip-rule="evenodd" d="M940 3H500V0H940V3Z" fill="#12D6FE"/>
</g>
</g>
<defs>
<filter id="filter0_i_0_1" x="0" y="0" width="1440" height="480" filterUnits="userSpaceOnUse" color-interpolation-filters="sRGB">
<feFlood flood-opacity="0" result="BackgroundImageFix"/>
<feBlend mode="normal" in="SourceGraphic" in2="BackgroundImageFix" result="shape"/>
<feColorMatrix in="SourceAlpha" type="matrix" values="0 0 0 0 0 0 0 0 0 0 0 0 0 0 0 0 0 0 127 0" result="hardAlpha"/>
<feOffset dy="2"/>
<feGaussianBlur stdDeviation="2"/>
<feComposite in2="hardAlpha" operator="arithmetic" k2="-1" k3="1"/>
<feColorMatrix type="matrix" values="0 0 0 0 1 0 0 0 0 1 0 0 0 0 1 0 0 0 0.5 0"/>
<feBlend mode="soft-light" in2="shape" result="effect1_innerShadow_0_1"/>
</filter>
<linearGradient id="paint0_linear_0_1" x1="720" y1="0" x2="720" y2="478" gradientUnits="userSpaceOnUse">
<stop stop-color="white"/>
<stop offset="1" stop-color="white" stop-opacity="0.25"/>
</linearGradient>
<linearGradient id="paint1_linear_0_1" x1="720" y1="0" x2="720" y2="478" gradientUnits="userSpaceOnUse">
<stop stop-color="white"/>
<stop offset="1" stop-color="white" stop-opacity="0"/>
</linearGradient>
<radialGradient id="paint2_radial_0_1" cx="0" cy="0" r="1" gradientUnits="userSpaceOnUse" gradientTransform="translate(1163.57 222.043) rotate(-48.2367) scale(191.008)">
<stop stop-color="#FF33DD"/>
<stop offset="0.5" stop-color="#4D79FF"/>
<stop offset="1" stop-color="#00D5FF"/>
</radialGradient>
<radialGradient id="paint3_radial_0_1" cx="0" cy="0" r="1" gradientUnits="userSpaceOnUse" gradientTransform="translate(823.568 222.043) rotate(-48.2367) scale(191.008)">
<stop stop-color="#FF33DD"/>
<stop offset="0.5" stop-color="#4D79FF"/>
<stop offset="1" stop-color="#00D5FF"/>
</radialGradient>
<radialGradient id="paint4_radial_0_1" cx="0" cy="0" r="1" gradientUnits="userSpaceOnUse" gradientTransform="translate(483.568 222.043) rotate(-48.2367) scale(191.008)">
<stop stop-color="#FF33DD"/>
<stop offset="0.5" stop-color="#4D79FF"/>
<stop offset="1" stop-color="#00D5FF"/>
</radialGradient>
<radialGradient id="paint5_radial_0_1" cx="0" cy="0" r="1" gradientUnits="userSpaceOnUse" gradientTransform="translate(143.568 222.043) rotate(-48.2367) scale(191.008)">
<stop stop-color="#FF33DD"/>
<stop offset="0.5" stop-color="#4D79FF"/>
<stop offset="1" stop-color="#00D5FF"/>
</radialGradient>
<clipPath id="clip0_0_1">
<rect width="1920" height="13179" fill="white" transform="translate(-255 -1210)"/>
</clipPath>
</defs>
</svg>
