<svg width="28" height="22" viewBox="0 0 28 22" fill="none" xmlns="http://www.w3.org/2000/svg">
<path d="M23.1525 2.42354C26.1499 6.8577 27.6301 11.8593 27.0768 17.6173C27.0744 17.6417 27.0618 17.6641 27.0419 17.6787C24.7721 19.3557 22.573 20.3735 20.4047 21.0484C20.3878 21.0536 20.3697 21.0533 20.353 21.0476C20.3363 21.0419 20.3218 21.0311 20.3115 21.0167C19.8105 20.3154 19.3554 19.576 18.9566 18.7996C18.9337 18.7539 18.9546 18.6988 19.0017 18.6808C19.7246 18.4068 20.412 18.0783 21.0732 17.6894C21.1252 17.6587 21.1286 17.5836 21.0805 17.5476C20.9401 17.4428 20.8011 17.3326 20.6681 17.2224C20.6432 17.2021 20.6097 17.1981 20.5815 17.2118C16.2891 19.2062 11.5869 19.2062 7.24371 17.2118C7.21551 17.1991 7.182 17.2034 7.15779 17.2234C7.02509 17.3336 6.88575 17.4428 6.74675 17.5476C6.69865 17.5836 6.70263 17.6587 6.75505 17.6894C7.41621 18.071 8.10359 18.4068 8.82547 18.6821C8.87224 18.7002 8.89447 18.7539 8.87125 18.7996C8.48112 19.5771 8.02596 20.3164 7.51574 21.0177C7.49351 21.0461 7.45702 21.0591 7.42252 21.0484C5.26452 20.3735 3.06538 19.3557 0.795578 17.6787C0.776668 17.6641 0.763067 17.6407 0.761076 17.6163C0.298624 12.6357 1.24111 7.59273 4.68164 2.42254C4.68993 2.40885 4.70254 2.39817 4.71714 2.39183C6.41003 1.61007 8.22368 1.03494 10.1193 0.706485C10.1538 0.701144 10.1883 0.717167 10.2062 0.747876C10.4404 1.16512 10.7081 1.7002 10.8893 2.13747C12.8874 1.83038 14.9166 1.83038 16.9565 2.13747C17.1377 1.70955 17.3961 1.16512 17.6293 0.747876C17.6376 0.732642 17.6505 0.720436 17.6661 0.713003C17.6817 0.70557 17.6993 0.703289 17.7162 0.706485C19.6128 1.03594 21.4265 1.61108 23.118 2.39183C23.133 2.39817 23.1452 2.40885 23.1525 2.42354ZM11.9051 11.8934C11.926 10.421 10.8591 9.20263 9.51981 9.20263C8.1915 9.20263 7.13489 10.4103 7.13489 11.8934C7.13489 13.3761 8.2124 14.5838 9.51981 14.5838C10.8484 14.5838 11.9051 13.3761 11.9051 11.8934ZM20.7235 11.8934C20.7444 10.421 19.6775 9.20263 18.3386 9.20263C17.01 9.20263 15.9533 10.4103 15.9533 11.8934C15.9533 13.3761 17.0308 14.5838 18.3386 14.5838C19.6775 14.5838 20.7235 13.3761 20.7235 11.8934Z" fill="#6975FF"/>
</svg>
