<svg width="100" height="100" viewBox="0 0 100 100" fill="none" xmlns="http://www.w3.org/2000/svg">
<circle cx="50" cy="50" r="50" fill="url(#paint0_radial_22_873)"/>
<path d="M37.6771 67H30.0991C28.5068 67 27.7202 67 27.2406 66.6932C26.7226 66.3574 26.4061 65.801 26.3677 65.187C26.3389 64.6213 26.7322 63.9304 27.5188 62.5491L46.2298 29.5684C47.026 28.1679 47.4288 27.4676 47.9372 27.2086C48.484 26.9305 49.1363 26.9305 49.6831 27.2086C50.1915 27.4676 50.5944 28.1679 51.3905 29.5684L55.2371 36.2831L55.2567 36.3173C56.1166 37.8198 56.5527 38.5817 56.7431 39.3814C56.9541 40.2543 56.9541 41.1751 56.7431 42.0481C56.5512 42.8538 56.1196 43.6212 55.2467 45.1464L45.4182 62.5203L45.3928 62.5648L45.3923 62.5657C44.527 64.08 44.0884 64.8476 43.4806 65.4267C42.8187 66.06 42.0225 66.5201 41.1496 66.7795C40.3534 67 39.4613 67 37.6771 67Z" fill="white"/>
<path d="M56.8141 67H67.6724C69.2744 67 70.0803 67 70.5602 66.6839C71.078 66.348 71.404 65.7818 71.4332 65.1683C71.4607 64.6208 71.076 63.9569 70.3221 62.6559L70.322 62.6558C70.2995 62.6174 70.277 62.5784 70.2541 62.5388L70.2435 62.5205L64.8045 53.2159L64.7426 53.1112L64.7415 53.1092C63.9779 51.818 63.5922 51.1659 63.097 50.9137C62.5505 50.6355 61.9074 50.6355 61.3609 50.9137C60.862 51.1727 60.4592 51.8538 59.663 53.2255L54.2433 62.5301L54.2247 62.5622L54.2245 62.5625C53.4313 63.9318 53.0348 64.6161 53.0634 65.1776C53.1018 65.7917 53.4183 66.3574 53.9363 66.6932C54.4064 67 55.2121 67 56.8141 67Z" fill="white"/>
<defs>
<radialGradient id="paint0_radial_22_873" cx="0" cy="0" r="1" gradientUnits="userSpaceOnUse" gradientTransform="translate(-16.4316 122.043) rotate(-48.2367) scale(191.008)">
<stop stop-color="#FF33DD"/>
<stop offset="0.5" stop-color="#4D79FF"/>
<stop offset="1" stop-color="#00D5FF"/>
</radialGradient>
</defs>
</svg>
