<svg width="80" height="80" viewBox="0 0 80 80" fill="none" xmlns="http://www.w3.org/2000/svg">
<path fill-rule="evenodd" clip-rule="evenodd" d="M51.964 9.6665C44.1768 9.6665 37.864 15.9793 37.864 23.7665C37.864 31.5537 44.1768 37.8665 51.964 37.8665C59.7513 37.8665 66.0641 31.5537 66.0641 23.7665C66.0641 15.9793 59.7513 9.6665 51.964 9.6665ZM31.864 23.7665C31.864 12.6656 40.8631 3.6665 51.964 3.6665C63.065 3.6665 72.0641 12.6656 72.0641 23.7665C72.0641 34.8675 63.065 43.8665 51.964 43.8665C40.8631 43.8665 31.864 34.8675 31.864 23.7665ZM21.2 47.2665C17.1867 47.2665 13.9333 50.5199 13.9333 54.5332C13.9333 58.5464 17.1867 61.7998 21.2 61.7998C25.2133 61.7998 28.4667 58.5464 28.4667 54.5332C28.4667 50.5199 25.2133 47.2665 21.2 47.2665ZM7.93335 54.5332C7.93335 47.2062 13.873 41.2665 21.2 41.2665C28.5269 41.2665 34.4667 47.2062 34.4667 54.5332C34.4667 61.8602 28.5269 67.7998 21.2 67.7998C13.873 67.7998 7.93335 61.8601 7.93335 54.5332ZM49.863 64.7998C49.863 61.7438 52.3403 59.2664 55.3963 59.2664C58.4523 59.2664 60.9296 61.7438 60.9296 64.7998C60.9296 67.8557 58.4523 70.3331 55.3963 70.3331C52.3403 70.3331 49.863 67.8557 49.863 64.7998ZM55.3963 53.2664C49.0266 53.2664 43.863 58.4301 43.863 64.7998C43.863 71.1694 49.0266 76.3331 55.3963 76.3331C61.766 76.3331 66.9296 71.1694 66.9296 64.7998C66.9296 58.4301 61.766 53.2664 55.3963 53.2664Z" fill="url(#paint0_radial_22_798)"/>
<defs>
<radialGradient id="paint0_radial_22_798" cx="0" cy="0" r="1" gradientUnits="userSpaceOnUse" gradientTransform="translate(-2.60435 92.351) rotate(-51.7598) scale(131.815 131.815)">
<stop stop-color="#FF33DD"/>
<stop offset="0.5" stop-color="#4D79FF"/>
<stop offset="1" stop-color="#00D5FF"/>
</radialGradient>
</defs>
</svg>
