<svg width="27" height="22" viewBox="0 0 27 22" fill="none" xmlns="http://www.w3.org/2000/svg">
<path d="M26.7458 2.74743C25.9059 3.10889 25.0229 3.3606 24.1186 3.49632C24.5414 3.42385 25.1634 2.66288 25.4111 2.35487C25.7872 1.89026 26.0739 1.35988 26.2566 0.790661C26.2566 0.748385 26.2989 0.68799 26.2566 0.657793C26.2353 0.646164 26.2114 0.64007 26.1871 0.64007C26.1628 0.64007 26.139 0.646164 26.1177 0.657793C25.1358 1.18952 24.0908 1.59534 23.0074 1.86568C22.9696 1.87721 22.9294 1.87825 22.8911 1.86867C22.8528 1.85909 22.8178 1.83927 22.7899 1.81132C22.7056 1.7109 22.6148 1.61609 22.5182 1.52747C22.0763 1.13155 21.5749 0.807515 21.0325 0.567202C20.3002 0.266788 19.5093 0.136685 18.7194 0.186719C17.9529 0.235124 17.2046 0.440699 16.521 0.790661C15.8479 1.15962 15.2562 1.66087 14.7817 2.26428C14.2825 2.88534 13.9221 3.6061 13.7248 4.37807C13.5621 5.11238 13.5436 5.87131 13.6704 6.61266C13.6704 6.73948 13.6704 6.7576 13.5617 6.73948C9.25562 6.10535 5.72256 4.57737 2.83572 1.29797C2.7089 1.15303 2.64246 1.15303 2.53979 1.29797C1.28359 3.20643 1.89357 6.22613 3.46382 7.71787C3.6752 7.91717 3.89262 8.11043 4.12212 8.29161C3.40217 8.2405 2.6998 8.0454 2.05664 7.71787C1.93585 7.63936 1.86942 7.68163 1.86338 7.82658C1.84626 8.02753 1.84626 8.22957 1.86338 8.43052C1.98939 9.39356 2.36892 10.3059 2.96316 11.0741C3.55739 11.8424 4.345 12.439 5.24545 12.8031C5.46496 12.8971 5.69368 12.9679 5.9279 13.0144C5.26141 13.1457 4.57784 13.1661 3.9047 13.0748C3.75975 13.0446 3.7054 13.1231 3.75975 13.2621C4.64755 15.6778 6.57412 16.4146 7.98734 16.8253C8.18061 16.8555 8.37387 16.8555 8.59129 16.9038C8.59129 16.9038 8.59129 16.9038 8.55505 16.9401C8.13833 17.701 6.45333 18.2144 5.68029 18.4801C4.26928 18.9869 2.76489 19.1807 1.27152 19.0478C1.03598 19.0116 0.981623 19.0176 0.921229 19.0478C0.860835 19.078 0.921229 19.1444 0.987663 19.2048C1.28963 19.4041 1.5916 19.5793 1.90565 19.7484C2.84058 20.2583 3.82899 20.6634 4.85289 20.9563C10.1555 22.4178 16.1224 21.3428 20.1024 17.387C23.2308 14.2827 24.33 10.0008 24.33 5.71278C24.33 5.54972 24.5293 5.45309 24.6441 5.36854C25.4355 4.75185 26.1333 4.02355 26.7156 3.20643C26.8164 3.08462 26.8681 2.92954 26.8605 2.77159C26.8605 2.681 26.8605 2.69912 26.7458 2.74743Z" fill="#33CCFF"/>
</svg>
