<svg width="118" height="134" viewBox="0 0 118 134" fill="none" xmlns="http://www.w3.org/2000/svg">
<path d="M81.1377 68.6259C98.8454 68.6259 113.2 54.2711 113.2 36.5635C113.2 18.8559 98.8454 4.50098 81.1377 4.50098C63.4301 4.50098 49.0752 18.8559 49.0752 36.5635C49.0752 54.2711 63.4301 68.6259 81.1377 68.6259Z" stroke="#00D0FD" stroke-width="8.33333" stroke-miterlimit="10"/>
<path d="M23.4569 113.501C34.0884 113.501 42.707 104.882 42.707 94.2505C42.707 83.619 34.0884 75.0005 23.4569 75.0005C12.8255 75.0005 4.20703 83.619 4.20703 94.2505C4.20703 104.882 12.8255 113.501 23.4569 113.501Z" stroke="#5689FF" stroke-width="8.33333" stroke-miterlimit="10"/>
<path d="M87.5746 129.5C96.4111 129.5 103.575 122.337 103.575 113.5C103.575 104.664 96.4111 97.5005 87.5746 97.5005C78.738 97.5005 71.5746 104.664 71.5746 113.5C71.5746 122.337 78.738 129.5 87.5746 129.5Z" stroke="#FF6EEE" stroke-width="8.33333" stroke-miterlimit="10"/>
</svg>
