<svg width="42" height="47" viewBox="0 0 42 47" fill="none" xmlns="http://www.w3.org/2000/svg">
<path d="M28.2186 24.0658C34.1683 24.0658 38.9916 19.2425 38.9916 13.2928C38.9916 7.34302 34.1683 2.51978 28.2186 2.51978C22.2688 2.51978 17.4456 7.34302 17.4456 13.2928C17.4456 19.2425 22.2688 24.0658 28.2186 24.0658Z" stroke="white" stroke-width="4.5" stroke-miterlimit="10"/>
<path d="M8.8379 39.144C12.4101 39.144 15.3059 36.2481 15.3059 32.6759C15.3059 29.1038 12.4101 26.2079 8.8379 26.2079C5.26573 26.2079 2.36993 29.1038 2.36993 32.6759C2.36993 36.2481 5.26573 39.144 8.8379 39.144Z" stroke="white" stroke-width="4.5" stroke-miterlimit="10"/>
<path d="M30.3814 44.5199C33.3504 44.5199 35.7574 42.113 35.7574 39.1439C35.7574 36.1748 33.3504 33.7679 30.3814 33.7679C27.4123 33.7679 25.0054 36.1748 25.0054 39.1439C25.0054 42.113 27.4123 44.5199 30.3814 44.5199Z" stroke="white" stroke-width="4.5" stroke-miterlimit="10"/>
</svg>
