<svg width="43" height="47" viewBox="0 0 43 47" fill="none" xmlns="http://www.w3.org/2000/svg">
<path d="M29.0184 23.8658C34.9681 23.8658 39.7914 19.0426 39.7914 13.0928C39.7914 7.14307 34.9681 2.31982 29.0184 2.31982C23.0686 2.31982 18.2454 7.14307 18.2454 13.0928C18.2454 19.0426 23.0686 23.8658 29.0184 23.8658Z" stroke="white" stroke-width="4.5" stroke-miterlimit="10"/>
<path d="M9.63765 38.9438C13.2098 38.9438 16.1057 36.048 16.1057 32.4758C16.1057 28.9036 13.2098 26.0078 9.63765 26.0078C6.06547 26.0078 3.16968 28.9036 3.16968 32.4758C3.16968 36.048 6.06547 38.9438 9.63765 38.9438Z" stroke="white" stroke-width="4.5" stroke-miterlimit="10"/>
<path d="M31.181 44.3199C34.1501 44.3199 36.557 41.9129 36.557 38.9439C36.557 35.9748 34.1501 33.5679 31.181 33.5679C28.212 33.5679 25.8051 35.9748 25.8051 38.9439C25.8051 41.9129 28.212 44.3199 31.181 44.3199Z" stroke="white" stroke-width="4.5" stroke-miterlimit="10"/>
</svg>
