<svg width="112" height="796" viewBox="0 0 112 796" fill="none" xmlns="http://www.w3.org/2000/svg">
<path opacity="0.5" d="M112 1L112 795L112 1ZM15.9998 796C7.16323 796 -0.000209914 788.837 -0.000209527 780L-0.000176132 16C-0.000175745 7.16344 7.16327 -4.58256e-06 15.9998 -4.1963e-06L15.9998 2C8.26784 2 1.99982 8.26801 1.99982 16L1.99979 780C1.99979 787.732 8.2678 794 15.9998 794L15.9998 796ZM-0.000176132 16C-0.000175745 7.16344 7.16327 -4.58256e-06 15.9998 -4.1963e-06L112 0L112 2L15.9998 2C8.26784 2 1.99982 8.26801 1.99982 16L-0.000176132 16ZM112 796L15.9998 796C7.16323 796 -0.000209914 788.837 -0.000209527 780L1.99979 780C1.99979 787.732 8.2678 794 15.9998 794L112 794L112 796Z" fill="#1F3987"/>
</svg>
