<svg width="1142" height="62" viewBox="0 0 1142 62" fill="none" xmlns="http://www.w3.org/2000/svg">
<path d="M1 0H1141H1ZM1142 15C1142 23.8366 1134.84 31 1126 31H16C7.16344 31 0 23.8366 0 15H2C2 22.732 8.26801 29 16 29H1126C1133.73 29 1140 22.732 1140 15H1142ZM16 31C7.16344 31 0 23.8366 0 15V0H2V15C2 22.732 8.26801 29 16 29V31ZM1142 0V15C1142 23.8366 1134.84 31 1126 31V29C1133.73 29 1140 22.732 1140 15V0H1142Z" fill="#1F3987"/>
<path d="M577 54L571 60L565 54" stroke="#1F3987" stroke-width="2"/>
<path d="M571 30V60" stroke="#1F3987" stroke-width="2"/>
</svg>
